<?xml version="1.0" encoding="UTF-8" standalone="no"?>
<svg
   version="1.0"
   width="682.2735pt"
   height="665.4762pt"
   viewBox="0 0 682.27349 665.47621"
   preserveAspectRatio="xMidYMid"
   id="svg83"
   sodipodi:docname="project_payload.svg"
   inkscape:version="1.3.2 (091e20ef0f, 2023-11-25, custom)"
   xmlns:inkscape="http://www.inkscape.org/namespaces/inkscape"
   xmlns:sodipodi="http://sodipodi.sourceforge.net/DTD/sodipodi-0.dtd"
   xmlns="http://www.w3.org/2000/svg"
   xmlns:svg="http://www.w3.org/2000/svg">
  <sodipodi:namedview
     id="namedview83"
     pagecolor="#ffffff"
     bordercolor="#cccccc"
     borderopacity="1"
     inkscape:showpageshadow="0"
     inkscape:pageopacity="1"
     inkscape:pagecheckerboard="0"
     inkscape:deskcolor="#d1d1d1"
     inkscape:document-units="pt"
     inkscape:zoom="0.53135934"
     inkscape:cx="26.347518"
     inkscape:cy="248.41946"
     inkscape:window-width="1904"
     inkscape:window-height="1044"
     inkscape:window-x="0"
     inkscape:window-y="0"
     inkscape:window-maximized="1"
     inkscape:current-layer="g83" />
  <defs
     id="defs83" />
  <metadata
     id="metadata1">
Created by potrace 1.12, written by Peter Selinger 2001-2015
</metadata>
  <g
     fill="#000000"
     stroke="none"
     id="g83">
    <path
       d="M 470.262,76.4115 C 365.36668,127.86401 284.42769,218.00509 222.71911,315.43597 208.21954,339.72646 195.7768,365.49644 188.462,392.912 c 15.42588,25.23898 40.7505,23.92545 53.31366,-2.65532 26.61737,-24.00398 60.96752,-77.39654 101.56254,-52.6344 28.47558,36.17324 -18.24414,63.92557 -36.28687,90.98115 -8.31492,12.20324 -36.58392,43.14149 -39.88145,40.93478 30.5831,34.65566 74.41062,-5.46734 106.70268,-17.79067 C 478.44619,392.36159 576.93156,312.03057 631.362,202.512 583.85375,157.6613 537.74667,111.32407 489.262,67.5115 c -6.49244,2.616286 -12.72555,5.812081 -19,8.9 z m 21.6,70.6995 c 49.47034,9.29099 76.16549,76.38347 42.38306,115.43032 -34.58602,46.32894 -118.70404,34.43013 -135.89794,-22.02121 -16.28829,-47.30233 26.99419,-100.86597 76.77506,-95.59569 5.63317,0.18133 11.25073,0.90409 16.73982,2.18658 z"
       id="path15" />
    <path
       d="m 464.862,163.512 c -45.24451,1.41236 -68.82275,66.55892 -32.41454,95.03794 31.54383,30.5722 94.96421,10.54494 97.79475,-35.12011 4.13569,-35.03639 -31.57813,-65.2866 -65.38021,-59.91783 z"
       id="path16" />
    <path
       d="M 199.362,269.112 C 117.35004,288.42617 51.081398,351.09354 11.677653,423.5615 5.3737438,437.65119 -4.1538267,486.58626 17.008915,452.86452 59.166086,406.17197 114.55711,365.67987 179.062,360.212 c 12.72361,-32.59809 32.4404,-61.71226 50.3,-91.6 -9.94561,-1.64124 -20.07139,-0.72862 -30,0.5 z"
       id="path17" />
    <path
       d="M 313.962,350.012 C 256.68566,393.25797 213.53594,451.65086 163.2498,502.30807 143.88762,522.94585 124.48092,543.54757 105.622,564.649 178.9675,502.84803 254.79597,443.93181 325.45013,378.98946 338.70432,367.05525 336.72934,342.21628 313.962,350.012 Z"
       id="path19" />
    <path
       d="M 160.662,404.412 C 81.802282,451.16263 44.483364,543.2588 32.1703,630.382 c 34.700479,7.0611 68.879,-10.58529 102.20964,-18.26815 56.84802,-19.34073 113.22475,-52.00051 143.58206,-105.71485 -35.01498,-10.78871 -50.03974,33.62282 -75.21844,44.85342 -39.38342,22.79913 -83.77005,35.41447 -128.38116,43.05958 12.803672,-70.15551 44.05179,-142.61195 105.9996,-182.6 -5.04784,-4.84432 -12.44093,-16.60164 -19.7,-7.3 z"
       id="path21" />
    <path
       d="m 402.862,456.712 c -25.3727,24.55952 -81.39939,21.49331 -85.46607,60.60014 -15.53658,62.71411 -64.22107,110.19597 -114.53393,147.39986 64.69017,-2.55182 118.35682,-47.45474 160.67758,-92.49981 30.30253,-33.27132 57.46095,-76.17129 54.31094,-122.69288 -5.71547,-1.77915 -9.67266,6.21046 -14.98852,7.19269 z"
       id="path23" />
    <path
       style="fill:#000000;fill-opacity:1;stroke:#000000;stroke-width:0.75;stroke-linecap:butt;stroke-linejoin:miter;stroke-opacity:1"
       d="M 530.388,49.9619 C 568.71208,88.062184 607.03632,126.16232 645.361,164.262 665.60595,111.84594 676.40995,56.229396 681.856,0.4396 629.03734,7.7241118 575.97503,21.386516 530.388,49.9619 Z"
       id="path84" />
  </g>
</svg>
